<svg xmlns="http://www.w3.org/2000/svg" viewBox="0 0 512 256" width="512" height="256">
  <!-- Golden Googol: round goldfish with a huge fan tail and a 1 followed by many zeros. -->
  <polygon points="172,116 70,20 98,96 30,128 98,160 70,236 172,140" fill="#a68554" stroke="#241f1d" stroke-width="5" stroke-linejoin="round"/>
  <polygon points="172,120 98,60 120,112 78,128 120,144 98,196 172,136" fill="#f3d27a"/>
  <polygon points="250,58 286,14 330,54" fill="#a68554" stroke="#241f1d" stroke-width="5" stroke-linejoin="round"/>
  <polygon points="270,198 290,234 324,200" fill="#a68554" stroke="#241f1d" stroke-width="5" stroke-linejoin="round"/>
  <polygon points="430,128 416,92 380,66 320,54 260,56 210,70 176,96 164,128 176,160 210,186 260,200 320,202 380,190 416,164" fill="#f3d27a" stroke="#241f1d" stroke-width="5" stroke-linejoin="round"/>
  <polygon points="430,132 416,164 380,190 320,202 260,200 210,186 176,160 164,132" fill="#b7a072" opacity="1.0"/>
  <polygon points="210,70 320,54 270,100" fill="#eee4cf" opacity="1.0"/>
  <rect x="208" y="112" width="8" height="34" fill="#7d5230"/>
  <ellipse cx="236" cy="129" rx="9" ry="13" fill="none" stroke="#7d5230" stroke-width="4"/>
  <ellipse cx="262" cy="129" rx="9" ry="13" fill="none" stroke="#7d5230" stroke-width="4"/>
  <ellipse cx="288" cy="129" rx="9" ry="13" fill="none" stroke="#7d5230" stroke-width="4"/>
  <ellipse cx="314" cy="129" rx="9" ry="13" fill="none" stroke="#7d5230" stroke-width="4"/>
  <ellipse cx="340" cy="129" rx="9" ry="13" fill="none" stroke="#7d5230" stroke-width="4"/>
  <polygon points="430,128 416,92 380,66 320,54 260,56 210,70 176,96 164,128 176,160 210,186 260,200 320,202 380,190 416,164" fill="none" stroke="#241f1d" stroke-width="5" stroke-linejoin="round"/>
  <path d="M430 128 L412 134" stroke="#241f1d" stroke-width="4" fill="none" stroke-linecap="round" stroke-linejoin="round"/>
  <circle cx="388" cy="106" r="20" fill="#eee4cf" stroke="#241f1d" stroke-width="4"/>
  <circle cx="391.6" cy="106" r="10.0" fill="#121413"/>
  <circle cx="395.0" cy="101.0" r="3.5999999999999996" fill="#fefefd"/>
</svg>
